<svg id="Layer_1" enable-background="new 0 0 512 512" height="512" viewBox="0 0 512 512" width="512" xmlns="http://www.w3.org/2000/svg"><path d="m422.987 49.877h-20.721v-20.72c0-15.526-12.631-28.157-28.156-28.157h-192.392c-7.63 0-14.515 2.852-19.911 8.247l-92.703 92.706c-5.396 5.395-8.248 12.28-8.248 19.911v294.379c0 15.526 12.631 28.157 28.157 28.157h7.308c3.615 4.648 8.26 8.163 13.412 10.439v10.281c0 15.526 12.632 28.157 28.158 28.157h44.868l5.883 10.191c2.79 4.829 7.867 7.532 13.08 7.532 2.556 0 5.144-.649 7.511-2.016l12.735-7.354c3.337-1.927 5.643-4.951 6.759-8.354h194.259c15.526 0 28.157-12.631 28.157-28.157v-387.085c.001-15.526-12.63-28.157-28.156-28.157zm-257.618-21.564v67c0 5.625-4.576 10.2-10.2 10.2h-66.999zm-88.513 387.93v-294.38c0-.12.012-.232.015-.35h78.297c14.447 0 26.2-11.753 26.2-26.2v-78.298c.118-.003.23-.015.35-.015h192.392c6.703 0 12.156 5.454 12.156 12.157v387.085c0 6.704-5.453 12.157-12.156 12.157h-127.691l52.045-11.485c2.631 3.321 6.234 5.721 10.416 6.842 1.723.461 3.469.69 5.203.69 3.443 0 6.837-.901 9.891-2.664 4.591-2.65 7.878-6.942 9.256-12.084s.677-10.502-1.975-15.093l-25.135-43.535c10.027-9.894 12.559-25.691 5.195-38.446-4.223-7.315-11.066-12.554-19.269-14.752-5.549-1.486-11.251-1.452-16.624.028l-25.136-43.537c-2.65-4.591-6.941-7.878-12.084-9.256-5.141-1.378-10.501-.677-15.093 1.974-4.591 2.65-7.878 6.942-9.256 12.083-1.121 4.183-.843 8.503.717 12.443l-66.944 73.199-35.392 20.433c-10.359 5.982-14.208 18.96-9.042 29.553-10.682 7.843-15.795 20.958-13.805 33.608h-.374c-6.703 0-12.157-5.454-12.157-12.157zm110.719 11.669c-.002.001-.004.003-.006.004l-24.979 14.421c-.001 0-.002.001-.002.001s-.001.001-.002.001l-4.376 2.527c-3.187 1.839-7.274.743-9.113-2.441l-31.301-54.217c-1.84-3.185-.744-7.273 2.441-9.112l29.533-17.051 37.972 65.77-.16.092c-.003.003-.005.004-.007.005zm109.951-91.727-13.502-23.387c1.293.021 2.595.184 3.881.528 4.074 1.092 7.468 3.684 9.554 7.297 2.872 4.977 2.691 10.88.067 15.562zm19.874 66.421c.692 1.201.532 2.365.375 2.952s-.601 1.676-1.801 2.369c-1.199.693-2.364.533-2.952.375-.588-.157-1.677-.601-2.37-1.801l-1.466-2.539c-.016-.027-.031-.054-.047-.081l-77.938-134.993c-.018-.032-.036-.063-.054-.095l-1.463-2.534c-.692-1.201-.532-2.365-.375-2.952s.601-1.676 1.802-2.369c.682-.394 1.352-.512 1.911-.512.426 0 .787.069 1.041.137.587.157 1.676.601 2.369 1.801zm-94.606-116.281 67.036 116.11-87.163 19.235-40.112-69.477zm-111.559 122.524 18.521 32.078c-8.324 2.721-17.721-.648-22.272-8.527-4.549-7.879-2.767-17.702 3.751-23.551zm26.656 68.428c-6.704 0-12.158-5.454-12.158-12.157v-7.319c4.297-.222 8.598-1.249 12.689-3.126 4.335 4.576 10.344 7.082 16.489 7.082 2.911 0 5.85-.563 8.652-1.728l9.958 17.249h-35.63zm64.144 17.388-24.519-42.469 11.131-6.427 24.52 42.469zm233.109-29.545c0 6.704-5.454 12.157-12.157 12.157h-197.675l-18.981-32.877h167.779c15.525 0 28.156-12.631 28.156-28.157v-350.366h20.721c6.703 0 12.157 5.454 12.157 12.157zm-209.413-341.27h120.612c4.418 0 8-3.582 8-8v-53.425c0-4.418-3.582-8-8-8h-120.612c-4.418 0-8 3.582-8 8v53.425c0 4.419 3.582 8 8 8zm8-53.425h104.612v37.425h-104.612zm-124.951 98.85c0-4.418 3.582-8 8-8h229.563c4.418 0 8 3.582 8 8s-3.582 8-8 8h-229.563c-4.418 0-8-3.582-8-8zm0 160.274c0-4.418 3.582-8 8-8h25.643c4.418 0 8 3.582 8 8s-3.582 8-8 8h-25.643c-4.418 0-8-3.581-8-8zm0-106.849c0-4.418 3.582-8 8-8h229.563c4.418 0 8 3.582 8 8s-3.582 8-8 8h-229.563c-4.418 0-8-3.582-8-8zm0 53.425c0-4.418 3.582-8 8-8h69.362c4.418 0 8 3.582 8 8s-3.582 8-8 8h-69.362c-4.418 0-8-3.582-8-8zm249.306 9.496c2.21 3.826.898 8.719-2.928 10.928l-23.221 13.407c-1.26.727-2.636 1.073-3.992 1.073-2.766 0-5.454-1.435-6.936-4.001-2.21-3.826-.898-8.719 2.928-10.928l23.221-13.407c3.829-2.211 8.721-.897 10.928 2.928zm-31.372-27.429-13.535 23.442c-1.481 2.566-4.171 4.001-6.936 4.001-1.357 0-2.732-.346-3.992-1.073-3.826-2.209-5.138-7.102-2.928-10.928l13.535-23.442c2.208-3.827 7.102-5.138 10.928-2.928 3.827 2.209 5.138 7.102 2.928 10.928zm12.371 68.312h27.068c4.418 0 8 3.582 8 8s-3.582 8-8 8h-27.068c-4.418 0-8-3.582-8-8s3.582-8 8-8z"/></svg>